<?xml version="1.0" encoding="UTF-8" standalone="no"?>
<!-- Created with Inkscape (http://www.inkscape.org/) -->

<svg
   xmlns:dc="http://purl.org/dc/elements/1.1/"
   xmlns:cc="http://creativecommons.org/ns#"
   xmlns:rdf="http://www.w3.org/1999/02/22-rdf-syntax-ns#"
   xmlns:svg="http://www.w3.org/2000/svg"
   xmlns="http://www.w3.org/2000/svg"
   xmlns:sodipodi="http://sodipodi.sourceforge.net/DTD/sodipodi-0.dtd"
   xmlns:inkscape="http://www.inkscape.org/namespaces/inkscape"
   width="50.307148mm"
   height="50.72311mm"
   viewBox="0 0 178.25368 179.72756"
   id="svg2"
   version="1.1"
   inkscape:version="0.91 r13725"
   sodipodi:docname="open.svg">
  <defs
     id="defs4" />
  <sodipodi:namedview
     id="base"
     pagecolor="#ffffff"
     bordercolor="#666666"
     borderopacity="1.0"
     inkscape:pageopacity="0.0"
     inkscape:pageshadow="2"
     inkscape:zoom="0.7"
     inkscape:cx="-24.808462"
     inkscape:cy="31.615047"
     inkscape:document-units="px"
     inkscape:current-layer="layer1"
     showgrid="false"
     inkscape:window-width="1566"
     inkscape:window-height="1045"
     inkscape:window-x="608"
     inkscape:window-y="177"
     inkscape:window-maximized="0"
     fit-margin-top="0"
     fit-margin-left="2"
     fit-margin-right="2"
     fit-margin-bottom="0" />
  <metadata
     id="metadata7">
    <rdf:RDF>
      <cc:Work
         rdf:about="">
        <dc:format>image/svg+xml</dc:format>
        <dc:type
           rdf:resource="http://purl.org/dc/dcmitype/StillImage" />
        <dc:title></dc:title>
      </cc:Work>
    </rdf:RDF>
  </metadata>
  <g
     inkscape:label="Layer 1"
     inkscape:groupmode="layer"
     id="layer1"
     transform="translate(-254.82827,-338.5465)">
    <g
       id="g4195"
       transform="translate(17.142857,0)">
      <path
         sodipodi:nodetypes="cccccccccccc"
         style="font-style:normal;font-variant:normal;font-weight:normal;font-stretch:normal;font-size:180px;line-height:125%;font-family:FontAwesome;-inkscape-font-specification:'FontAwesome, Normal';text-align:start;letter-spacing:0px;word-spacing:0px;writing-mode:lr-tb;text-anchor:start;fill:#ffffff;fill-opacity:1;stroke:none;stroke-width:1px;stroke-linecap:butt;stroke-linejoin:miter;stroke-opacity:1"
         d="m 322.16517,347.40686 c 13.27821,-8.31648 21.34692,1.73649 32.81879,8.46026 14.28639,3.08998 21.51215,16.32075 31.63722,24.63086 13.85584,7.84614 17.43861,16.48245 15.54103,32.9296 0.65884,26.97735 -1.99466,50.51637 -6.80714,77.04522 -2.58774,12.59262 -6.33991,23.2729 -20.78515,22.78863 -25.41087,-1.20342 -47.45764,0.31747 -72.76821,-3.3109 -21.96393,-13.5851 -29.19751,-38.24672 -47.58504,-55.44103 -10.36731,-12.88025 -3.42711,-26.33183 13.591,-31.56577 12.62037,1.11053 27.56085,-11.37339 23.04344,-26.89022 -1.28536,-13.48326 -7.17677,-27.18014 6.44416,-35.85607 8.57216,-6.41102 18.359,-3.42041 24.8699,-12.79058 z"
         id="path4193"
         inkscape:connector-curvature="0" />
      <path
         inkscape:connector-curvature="0"
         id="path4157"
         d="m 340.61383,354.24837 c -10.80228,-8.65448 -23.0847,6.55509 -19.52738,17.52426 0.24127,18.76783 0.51255,37.53437 0.34214,56.30387 -9.16402,-18.0516 2.33066,-38.63571 -4.07052,-57.07453 -8.56446,-12.08874 -26.01077,-0.36587 -22.88676,12.67115 1.87715,14.83265 1.37152,29.67864 1.25923,44.60506 -0.62623,6.38781 1.24481,24.36873 -0.97157,23.40415 -5.57782,-10.75538 -18.51611,-26.55211 -31.79368,-20.35011 -9.56987,8.9612 -1.18082,21.61766 5.39347,29.4594 9.19879,12.55978 19.56291,24.23313 28.42354,37.04558 14.076,13.15117 34.03242,6.03966 50.96145,6.58116 13.60432,2.98276 31.41723,4.88718 38.86788,-10.12475 8.61955,-14.97018 5.69972,-32.98782 8.30099,-49.44621 1.36196,-17.15984 1.88049,-34.69005 -2.24208,-51.53864 -13.1546,-10.24794 -24.02369,9.10312 -21.48141,20.85535 -5.35554,0.77518 -0.29308,-17.39285 -0.35281,-24.41107 3.52953,-11.58043 -6.86915,-32.55531 -20.00387,-20.51102 -10.34078,12.14985 -1.33393,29.66458 -3.01415,44.01149 1.38419,12.76213 -6.07412,3.88577 -4.24875,-3.40931 1.41701,-13.16609 0.0302,-26.45945 0.41002,-39.71843 -0.21428,-5.43346 0.0403,-11.26261 -3.36574,-15.8774 z m -20.59152,-12.5558 c 13.27821,-8.31648 27.77549,1.73649 39.24736,8.46026 14.28639,3.08998 18.65501,17.03504 28.78008,25.34515 13.85584,7.84614 22.43861,20.05388 20.54103,36.50103 0.65884,26.97735 -1.99466,54.0878 -6.80714,80.61665 -2.58774,12.59262 -11.33991,26.13004 -25.78515,25.64577 -25.41087,-1.20342 -51.02907,1.74604 -76.33964,-1.88233 -21.96393,-13.5851 -30.62608,-39.67529 -49.01361,-56.8696 -10.36731,-12.88025 -6.99854,-37.04612 10.01957,-42.28006 12.62037,1.11053 27.56085,-4.94481 23.04344,-20.46164 -1.28536,-13.48326 -5.03391,-31.46586 8.58702,-40.14179 8.57216,-6.41102 21.21614,-5.56327 27.72704,-14.93344 z"
         style="font-style:normal;font-variant:normal;font-weight:normal;font-stretch:normal;font-size:180px;line-height:125%;font-family:FontAwesome;-inkscape-font-specification:'FontAwesome, Normal';text-align:start;letter-spacing:0px;word-spacing:0px;writing-mode:lr-tb;text-anchor:start;fill:#000000;fill-opacity:1;stroke:none;stroke-width:1px;stroke-linecap:butt;stroke-linejoin:miter;stroke-opacity:1" />
    </g>
  </g>
</svg>
